<svg viewBox="0 0 1024 768" width="1024px" height="768px">
	<style>
		#back path, #front path {
			stroke-dasharray: 1000;
			stroke-dashoffset: 1000;
			animation: dash 4s ease-in forwards;
			stroke: url(#0);
			stroke-width: 2;
			fill: none;
		}

		#back path { stroke: url(#0); }
		#front path { stroke: url(#1); }

		@keyframes dash { to { stroke-dashoffset: 0; } }
		@-webkit-keyframes dash { to { stroke-dashoffset: 0; } }
	</style>

	<defs>
		<radialGradient id="0" gradientTransform="translate(-0.9 0) scale(2, 2)">
			<stop offset="0%" stop-color="#fdd575">
				<animate calcMode="paced" attributeName="stop-color" values="#fdd575;#d22e8c;#f55973;#f77868;#f99262;#fbaa63;#fcc06a;#fdd575" dur="3s" repeatCount="indefinite"/>
			</stop>
			<stop offset="14.29%" stop-color="#fcc06a">
				<animate calcMode="paced" attributeName="stop-color" values="#fcc06a;#fdd575;#d22e8c;#f55973;#f77868;#f99262;#fbaa63;#fcc06a" dur="3s" repeatCount="indefinite"/>
			</stop>
			<stop offset="28.57%" stop-color="#fbaa63">
				<animate calcMode="paced" attributeName="stop-color" values="#fbaa63;#fcc06a;#fdd575;#d22e8c;#f55973;#f77868;#f99262;#fbaa63" dur="3s" repeatCount="indefinite"/>
			</stop>
			<stop offset="42.86%" stop-color="#f99262">
				<animate calcMode="paced" attributeName="stop-color" values="#f99262;#fbaa63;#fcc06a;#fdd575;#d22e8c;#f55973;#f77868;#f99262" dur="3s" repeatCount="indefinite"/>
			</stop>
			<stop offset="57.14%" stop-color="#f77868">
				<animate calcMode="paced" attributeName="stop-color" values="#f77868;#f99262;#fbaa63;#fcc06a;#fdd575;#d22e8c;#f55973;#f77868" dur="3s" repeatCount="indefinite"/>
			</stop>
			<stop offset="71.43%" stop-color="#f55973">
				<animate calcMode="paced" attributeName="stop-color" values="#f55973;#f77868;#f99262;#fbaa63;#fcc06a;#fdd575;#d22e8c;#f55973" dur="3s" repeatCount="indefinite"/>
			</stop>
			<stop offset="100%" stop-color="#d22e8c">
				<animate calcMode="paced" attributeName="stop-color" values="#d22e8c;#f55973;#f77868;#f99262;#fbaa63;#fcc06a;#fdd575;#d22e8c" dur="3s" repeatCount="indefinite"/>
			</stop>
		</radialGradient>

		<linearGradient id="1" x1="0.35" y1="0.02" x2="0.65" y2="0.98">
			<stop offset="0%" stop-color="#4964da">
				<!-- <animate calcMode="paced" attributeName="stop-color" values="#4964da;#d92e7400;#c037ad66;#b03cc499;#9249ddcc;#4964da" dur="3s" repeatCount="indefinite"/> -->
			</stop>
			<stop offset="11.8%" stop-color="#9249ddcc">
				<!-- <animate calcMode="paced" attributeName="stop-color" values="#9249ddcc;#4964da;#d92e7400;#c037ad66;#b03cc499;#9249ddcc" dur="3s" repeatCount="indefinite"/> -->
			</stop>
			<stop offset="23.6%" stop-color="#b03cc499">
				<!-- <animate calcMode="paced" attributeName="stop-color" values="#b03cc499;#9249ddcc;#4964da;#d92e7400;#c037ad66;#b03cc499" dur="3s" repeatCount="indefinite"/> -->
			</stop>
			<stop offset="35.4%" stop-color="#c037ad66">
				<!-- <animate calcMode="paced" attributeName="stop-color" values="#c037ad66;#b03cc499;#9249ddcc;#4964da;#d92e7400;#c037ad66" dur="3s" repeatCount="indefinite"/> -->
			</stop>
			<stop offset="59%" stop-color="#d92e7400">
				<!-- <animate calcMode="paced" attributeName="stop-color" values="#d92e7400;#c037ad66;#b03cc499;#9249ddcc;#4964da;#d92e7400" dur="3s" repeatCount="indefinite"/> -->
			</stop>
		</linearGradient>
	</defs>

	<g>
		<g id="back" fill="url(#0)" style="font-style:normal;font-weight:500;font-size:72px;line-height:1;font-family:RalewayMediumAlt1;font-variant-ligatures:none;text-align:center;text-anchor:middle" aria-label="EVENTIFY">
			<path style="animation-delay: 0s"
				d="m 352.82656,74.64 h 27.576 v -5.76 h -34.056 v 15.84 h 6.48 z m -6.48,39.6 V 120 h 34.704 v -5.76 z m 6.48,-17.64 h 23.976 v -5.4 h -30.456 v 16.56 h 6.48 z"
				transform="translate(0 284.83000000000004) translate(236.03656250000006 67.22) scale(1.25) translate(-346.34656 -68.88)">
			</path>

			<path style="animation-delay: .25s"
				d="m 384.54031,68.88 17.136,41.976 3.24,-7.416 -13.536,-34.56 z m 40.608,0 -16.848,42.984 -3.168,7.416 0.36,0.72 h 5.616 l 20.88,-51.12 z"
				transform="translate(0 284.83000000000004) translate(302.52875 67.22) scale(1.25) translate(-384.54031 -68.88)">
			</path>

			<path style="animation-delay: .5s"
				d="m 445.35781,74.64 h 27.576 v -5.76 h -34.056 v 15.84 h 6.48 z m -6.48,39.6 V 120 h 34.704 v -5.76 z m 6.48,-17.64 h 23.976 v -5.4 h -30.456 v 16.56 h 6.48 z"
				transform="translate(0 284.83000000000004) translate(389.20062500000006 67.22) scale(1.25) translate(-438.87781 -68.88)">
			</path>

			<path style="animation-delay: .75s"
				d="m 482.47156,120 h 6.48 V 91.272 l -6.48,-8.424 z m 36.72,-51.048 v 39.744 l -31.68,-39.816 h -5.04 v 3.888 l 6.48,8.208 31.248,39.024 h 5.472 V 68.952 Z"
				transform="translate(0 284.83000000000004) translate(462.44281250000006 67.22) scale(1.25) translate(-482.47156 -68.88)">
			</path>

			<path style="animation-delay: 1s"
				d="m 550.62181,120 h 6.48 V 81.12 h -6.48 z m -17.64,-51.12 v 5.76 h 41.76 v -5.76 z"
				transform="translate(0 284.83000000000004) translate(544.330625 67.22) scale(1.25) translate(-532.98181 -68.88)">
			</path>

			<path style="animation-delay: 1.25s"
				d="m 582.03406,120 h 6.48 V 68.88 h -6.48 z"
				transform="translate(0 284.83000000000004) translate(624.3959375000001 67.22) scale(1.25) translate(-582.03406 -68.88)">
			</path>

			<path style="animation-delay: 1.5s"
				d="m 600.73719,120 h 6.48 V 97.104 h 22.968 v -5.4 h -29.448 z m 0,-51.12 v 16.344 h 6.48 V 74.64 h 27.288 v -5.76 z"
				transform="translate(0 284.83000000000004) translate(666.5248500000002 67.22) scale(1.25) translate(-600.73719 -68.88)">
			</path>

			<path style="animation-delay: 1.75s"
				d="m 637.60006,68.88 15.912,26.64 3.312,-5.688 -12.096,-20.952 z m 38.232,0 -15.624,26.64 -3.24,5.832 V 120 h 6.48 v -18.648 l 19.44,-32.472 z"
				transform="translate(0 284.83000000000004) translate(731.3534375000002 67.22) scale(1.25) translate(-637.60006 -68.88)">
			</path>
		</g>

		<!-- <g fill="#FFF" transform="matrix(0.866, -0.5, 0.25, 0.433, 500, 380) scale(2)">
			<path d="M 0,70 A 65,70 0 0,0 65,0 5,5 0 0,1 75,0 75,70 0 0,1 0,70Z">
				<animateTransform attributeName="transform" type="rotate" from="360 0 0" to="0 0 0" dur="2s" repeatCount="indefinite" />
			</path>
		</g> -->

		<g id="front" fill="url(#1)" style="font-style:normal;font-weight:500;font-size:72px;line-height:1;font-family:RalewayMediumAlt1;font-variant-ligatures:none;text-align:center;text-anchor:middle" aria-label="EVENTIFY">
			<path style="animation-delay: 0s"
				d="m 352.82656,74.64 h 27.576 v -5.76 h -34.056 v 15.84 h 6.48 z m -6.48,39.6 V 120 h 34.704 v -5.76 z m 6.48,-17.64 h 23.976 v -5.4 h -30.456 v 16.56 h 6.48 z"
				transform="translate(0 284.83000000000004) translate(236.03656250000006 67.22) scale(1.25) translate(-346.34656 -68.88)">
			</path>

			<path style="animation-delay: .25s"
				d="m 384.54031,68.88 17.136,41.976 3.24,-7.416 -13.536,-34.56 z m 40.608,0 -16.848,42.984 -3.168,7.416 0.36,0.72 h 5.616 l 20.88,-51.12 z"
				transform="translate(0 284.83000000000004) translate(302.52875 67.22) scale(1.25) translate(-384.54031 -68.88)">
			</path>

			<path style="animation-delay: .5s"
				d="m 445.35781,74.64 h 27.576 v -5.76 h -34.056 v 15.84 h 6.48 z m -6.48,39.6 V 120 h 34.704 v -5.76 z m 6.48,-17.64 h 23.976 v -5.4 h -30.456 v 16.56 h 6.48 z"
				transform="translate(0 284.83000000000004) translate(389.20062500000006 67.22) scale(1.25) translate(-438.87781 -68.88)">
			</path>

			<path style="animation-delay: .75s"
				d="m 482.47156,120 h 6.48 V 91.272 l -6.48,-8.424 z m 36.72,-51.048 v 39.744 l -31.68,-39.816 h -5.04 v 3.888 l 6.48,8.208 31.248,39.024 h 5.472 V 68.952 Z"
				transform="translate(0 284.83000000000004) translate(462.44281250000006 67.22) scale(1.25) translate(-482.47156 -68.88)">
			</path>

			<path style="animation-delay: 1s"
				d="m 550.62181,120 h 6.48 V 81.12 h -6.48 z m -17.64,-51.12 v 5.76 h 41.76 v -5.76 z"
				transform="translate(0 284.83000000000004) translate(544.330625 67.22) scale(1.25) translate(-532.98181 -68.88)">
			</path>

			<path style="animation-delay: 1.25s"
				d="m 582.03406,120 h 6.48 V 68.88 h -6.48 z"
				transform="translate(0 284.83000000000004) translate(624.3959375000001 67.22) scale(1.25) translate(-582.03406 -68.88)">
			</path>

			<path style="animation-delay: 1.5s"
				d="m 600.73719,120 h 6.48 V 97.104 h 22.968 v -5.4 h -29.448 z m 0,-51.12 v 16.344 h 6.48 V 74.64 h 27.288 v -5.76 z"
				transform="translate(0 284.83000000000004) translate(666.5248500000002 67.22) scale(1.25) translate(-600.73719 -68.88)">
			</path>

			<path style="animation-delay: 1.75s"
				d="m 637.60006,68.88 15.912,26.64 3.312,-5.688 -12.096,-20.952 z m 38.232,0 -15.624,26.64 -3.24,5.832 V 120 h 6.48 v -18.648 l 19.44,-32.472 z"
				transform="translate(0 284.83000000000004) translate(731.3534375000002 67.22) scale(1.25) translate(-637.60006 -68.88)">
			</path>
		</g>

		<animate begin="3s" calcMode="paced" attributeName="opacity" values="1;.75;1" dur="2s" repeatCount="indefinite" />
	</g>

	<!-- <g>
		<circle fill="url(#0)" cx="2516" cy="1360" r="25" transform="scale(.25)" />
		<g transform="matrix(0.866, -0.5, 0.25, 0.433, 629, 340) scale(.125)">
			<path fill="url(#0)" d="M 0,70 A 65,70 0 0,0 65,0 5,5 0 0,1 75,0 75,70 0 0,1 0,70Z">
				<animateTransform attributeName="transform" type="rotate" from="360 0 0" to="0 0 0" dur="1s" repeatCount="indefinite" />
			</path>

			<path fill="url(#1)" d="M 0,70 A 65,70 0 0,0 65,0 5,5 0 0,1 75,0 75,70 0 0,1 0,70Z">
				<animateTransform attributeName="transform" type="rotate" from="360 0 0" to="0 0 0" dur="1s" repeatCount="indefinite" />
			</path>
		</g>
		<path fill="url(#0)" d="M 50,0 A 50,50 0 0,0 -50,0Z" transform="matrix(0.866, -0.5, 0.5, 0.866, 629, 340) scale(.125)" />
	</g> -->
</svg>